<?xml version="1.0" encoding="utf-8"?>
<!-- Generator: Adobe Illustrator 17.1.0, SVG Export Plug-In . SVG Version: 6.00 Build 0)  -->
<!DOCTYPE svg PUBLIC "-//W3C//DTD SVG 1.1//EN" "http://www.w3.org/Graphics/SVG/1.1/DTD/svg11.dtd">
<svg version="1.1" xmlns="http://www.w3.org/2000/svg" xmlns:xlink="http://www.w3.org/1999/xlink" x="0px" y="0px"
	 viewBox="0 0 750 750" enable-background="new 0 0 750 750" xml:space="preserve">
<g id="Layer_1" display="none">
	<g display="inline">
		<path fill="#F15B2A" d="M562.8,739.2c14.2,14.2,37.2,14.2,51.4,0c14.2-14.2,14.2-37.2,0-51.4l-99.3-99.3l62.8-62.8
			c29.2-29.2,47.2-69.4,47.2-114.2c0-89.2-72.2-161.5-161.5-161.5s-161.5,72.2-161.5,161.5c0,44.4,18.1,85.1,47.2,114.2l0,0
			l62.8,62.8l-62.8,62.8c-16,16-38.2,26-62.8,26c-49,0-88.9-39.9-88.9-88.9V36.5c0-20.1-16.3-36.5-36.1-36.5
			C141.3,0,125,16.3,125,36.5v552.1c0,89.2,72.2,161.5,161.5,161.5c44.4,0,85.1-18.1,114.2-47.2l62.8-62.8L562.8,739.2z
			 M400.7,474.3c-16-16-26-38.2-26-62.8c0-49,39.9-88.9,88.9-88.9s88.9,39.9,88.9,88.9c0,24.7-10.1,46.9-26,62.8l0,0l-62.8,62.8
			L400.7,474.3z"/>
	</g>
</g>
<g id="Layer_2">
	<text transform="matrix(1 0 0 1 0.9089 437.3935)" font-family="'MonotypeCorsiva'" font-size="559.3309">D</text>
	<text transform="matrix(0.9278 -0.3731 0.3731 0.9278 267.608 519.5482)" font-family="'MonotypeCorsiva'" font-size="469.938">W</text>
	<text transform="matrix(1 0 0 1 125.3848 529.8204)" font-family="'DaunPenh'" font-size="158.8537">diana wallace </text>
	<text transform="matrix(1 -5.634146e-003 5.634146e-003 1 125.3849 639.7528)" font-family="'DaunPenh'" font-size="62.9284">illustrator</text>
	<text transform="matrix(1 8.610621e-003 -8.610621e-003 1 473.1539 639.7527)" font-family="'DaunPenh'" font-size="62.9284">web developer</text>
</g>
</svg>
